<svg height="32" viewBox="0 0 32 32" width="32" xmlns="http://www.w3.org/2000/svg"><g fill="#515151"><path d="M13.18 6.288v.027l.015-.02z"/><path d="M15.624 1.028c-7.81 0-14.167 6.355-14.167 14.167 0 7.812 6.356 14.167 14.167 14.167 7.812 0 14.168-6.354 14.168-14.167 0-7.812-6.356-14.167-14.168-14.167zm12.943 14.167c0 .248-.022.49-.037.735-.09-.23-.23-.53-.262-.66-.048-.195-.34-.878-.34-.878s-.294-.39-.49-.488c-.193-.098-.34-.342-.682-.536-.342-.196-.487-.293-.78-.293-.293 0-.584-.39-.927-.586-.343-.195-.39-.098-.39-.098s.39.585.39.73c0 .147.437.39.878.293 0 0 .292.537.438.683.146.146-.05.293-.34.488-.294.194-.245.146-.393.292-.146.146-.633.392-.78.488-.146.097-.73.39-1.023.097-.143-.14-.1-.438-.195-.634-.098-.196-1.122-1.708-1.61-2.39-.085-.12-.293-.49-.438-.585-.146-.1.342-.1.342-.1s0-.34-.05-.584c-.05-.243.05-.584.05-.584s-.49.292-.637.39c-.145.098-.292-.194-.486-.44-.195-.242-.39-.536-.44-.78-.048-.243.245-.34.245-.34l.438-.244s.537-.097.88-.05c.34.05.876.1.876.1s.146-.343-.05-.49c-.193-.145-.634-.39-.83-.34-.193.048.098-.244.34-.44l-.54-.097s-.49.244-.637.293c-.147.048-.4.146-.597.39-.194.244.078.585-.117.683a3.045 3.045 0 0 1-.473.195c-.146.05-.61 0-.61 0-.504 0-.18.46-.05.623l-.39-.476-.29-.682s-.415-.292-.61-.39c-.195-.097-.796-.438-.796-.438l.042.44.564.57.05.014.294.39-.65.05v-.387c-.61-.15-.45-.3-.52-.348-.145-.097-.484-.342-.484-.342s-.574.098-.72.147c-.148.05-.19.195-.48.292-.294.097-.426.243-.523.39s-.414.584-.607.78c-.196.195-.558.145-.704.145-.148 0-.852-.195-.852-.195v-.827s.095-.464.047-.61l.427-.072.713-.146.21-.147.3-.39s-.338-.244-.095-.585c.117-.164.538-.195.733-.34.194-.147.49-.245.49-.245s.34-.292.682-.634c0 0 .244-.147.536-.245 0 0 .83.732.978.732s.683-.34.683-.34.147-.44.1-.586c-.05-.146-.294-.634-.294-.634s-.146.244-.292.44-.244.438-.244.438-.683-.047-.73-.193c-.05-.147-.147-.388-.197-.533-.047-.147-.438-.142-.73-.044-.293.098.048-.526.048-.526s.295-.368.49-.368.634-.25.827-.298c.196-.05.783-.272 1.025-.272.244 0 .537.105.684.105h.73l1.024-.083s.88.325.585.52c0 0 .343.212.49.358.136.138.49-.127.693-.24 3.65 2.29 6.09 6.34 6.09 10.96zM5.297 7.563c0 .195-.267.242 0 .732.34.634.047.927.047.927s-.83.585-.976.683c-.146.098-.536.634-.293.487.244-.146.536-.292.293.098-.244.39-.683 1.024-.78 1.27s-.585.828-.585 1.12c0 .294-.195.88-.146 1.124.033.17-.075.67-.16.877A12.84 12.84 0 0 1 5.21 7.546c.05.005.086.018.086.018zm1.566-1.87c1.193-1.1 2.59-1.98 4.133-2.573-.152.195-.336.395-.336.395s-.34 0-.976.683c-.633.683-.487.488-.633.682s-.097.244-.44.49c-.34.242-.486.535-.486.535l-.537.195-.438-.195s-.393.147-.344-.05c.014-.05.035-.105.057-.162zM12.71 6.83l-.195-.29.194-.44.47.188v-.87l.448-.244.373.536.575.635-.38.292-1.017.195v-.517l-.47.516zm6.34 4.586c.115-.09.488.146.488.146s1.22.244 1.414.39c.196.147.537.245.635.392.098.146.438.585.486.73.05.147.294.685.343.88.05.194.195.682.34.926.147.245.977 1.317 1.27 1.805l.88-.146s-.1.437-.197.584c-.098.146-.39.536-.537.73-.147.196-.34.49-.634.732-.293.243-.295.487-.44.683-.146.194-.342.633-.342.633s.098.976.146 1.17-.34.732-.34.732l-.44.44-.59.78.05.73s-.445.343-.69.537c-.242.194-.204.34-.4.537-.193.193-.956.535-1.15.584s-1.272.195-1.272.195v-.44l-.022-.487s-.148-.585-.295-.78-.083-.49-.327-.732c-.244-.243-.334-.437-.383-.585-.05-.146.053-.584.053-.584s.197-.536.294-.73c.098-.196 0-.488-.097-.684s-.145-.684-.145-.83c0-.145-.392-.39-.538-.536-.146-.146-.097-.342-.097-.535 0-.197-.146-.635-.098-.977.05-.34-.438-.098-.73 0-.294.098-.488-.098-.488-.39s-.537-.05-.88.145c-.342.195-.73.195-1.123.342-.39.146-.583-.146-.583-.146s-.343-.293-.585-.44c-.246-.146-.49-.438-.686-.682-.194-.245-.683-.977-.73-1.268-.05-.294 0-.49 0-.83s0-.537.048-.78c.05-.245.195-.538.342-.782.146-.244.683-.536.828-.634.146-.097.488-.39.488-.585 0-.196.196-.293.292-.49.1-.194.44-.68.88-.486 0 0 .388-.048.534-.097s.536-.194.73-.292c.194-.098.68-.144.68-.144s.384.154.53.154.622-.085.622-.085.22.706.22.853.146.292.39.39c.242.1 1.365.344 1.853-.047zm5.61 9.56c0 .147-.05.538-.098.733-.05.194-.147.536-.195.73-.05.195-.293.585-.438.683-.147.098-.392.39-.537.44-.146.048-.245-.343-.196-.538.05-.195.293-.73.293-.73s.05-.293.097-.49c.05-.193.635-.437.635-.437l.39-.732s.048.196.048.34zM3.015 18.072c.063.017.153.063.28.176.184.16.293.242.537.34.243.1.34.244.634.39.293.148.196.05.585.49.392.437.343.437.44.682s.244.487.342.635c.098.146.39.243.536.34s.39.196.536.196c.147 0 .586.438.83.486.244.05.244.538.244.538l-.244.682-.196.73.196.586s-.294.245-.487.245c-.18 0-.24.114-.438.06a12.93 12.93 0 0 1-3.795-6.576z"/></g></svg>